<?xml version="1.0" encoding="utf-8"?>
<!-- Generator: Adobe Illustrator 26.5.0, SVG Export Plug-In . SVG Version: 6.00 Build 0)  -->
<svg version="1.1" id="Layer_1" xmlns="http://www.w3.org/2000/svg" xmlns:xlink="http://www.w3.org/1999/xlink" x="0px" y="0px"
	 viewBox="0 0 800 800" style="enable-background:new 0 0 800 800;" xml:space="preserve">
<style type="text/css">
	.st0{fill:#07D3E2;}
	.st1{fill:#FFE12E;}
	.st2{fill:#ED7D18;}
</style>
<path class="st0" d="M767.2,210.4v379.1c-104.7,0-189.6-84.9-189.6-189.6C577.6,295.3,662.5,210.4,767.2,210.4z"/>
<path class="st1" d="M767.2,143V32.8H32.8V143c142,0,257,115.1,257,257c0,142-115.1,257-257,257v110.1h734.4V657
	c-142,0-257-115.1-257-257C510.2,258,625.2,143,767.2,143z M453.2,646c0,29.5-23.8,53.2-53.2,53.2s-53.2-23.8-53.2-53.2V154
	c0-29.5,23.8-53.2,53.2-53.2s53.2,23.8,53.2,53.2V646z"/>
<path class="st2" d="M222.4,400c0,104.7-84.9,189.6-189.6,189.6V210.4C137.5,210.4,222.4,295.3,222.4,400z"/>
</svg>
